<?xml version="1.0" standalone="no"?>
<!DOCTYPE svg PUBLIC "-//W3C//DTD SVG 20010904//EN"
 "http://www.w3.org/TR/2001/REC-SVG-20010904/DTD/svg10.dtd">
<svg version="1.0" xmlns="http://www.w3.org/2000/svg"
 width="280pt" height="648pt" viewBox="0 0 280 648"
 preserveAspectRatio="xMidYMid meet">
<metadata>
Created by potrace 1.8, written by Peter Selinger 2001-2007
</metadata>
<g transform="translate(0,648) scale(0.170526,-0.170526)"
fill="#000000" stroke="none">
<path d="M723 3785 c-143 -40 -229 -153 -227 -300 0 -85 24 -144 83 -208 60
-65 127 -92 226 -91 92 0 143 21 208 83 65 61 91 123 91 216 1 68 -3 89 -27
137 -64 131 -217 201 -354 163z"/>
<path d="M322 3109 c-118 -20 -226 -101 -285 -214 l-32 -60 -3 -563 c-2 -393
1 -568 8 -583 15 -28 69 -59 103 -59 38 0 80 23 103 57 18 26 19 56 22 516 l3
487 69 0 70 0 2 -1277 3 -1278 23 -37 c72 -117 247 -108 303 15 18 40 19 77
19 785 l0 742 70 0 70 0 0 -726 c0 -512 3 -739 11 -771 39 -154 245 -175 316
-33 l23 44 0 1268 0 1268 70 0 69 0 3 -482 c3 -466 4 -484 24 -518 56 -95 189
-74 214 35 13 55 12 964 0 1045 -29 182 -167 317 -346 341 -89 11 -862 9 -932
-2z"/>
</g>
</svg>
