<?xml version="1.0" standalone="no"?>
<!DOCTYPE svg PUBLIC "-//W3C//DTD SVG 20010904//EN"
 "http://www.w3.org/TR/2001/REC-SVG-20010904/DTD/svg10.dtd">
<svg version="1.0" xmlns="http://www.w3.org/2000/svg"
 width="341pt" height="648pt" viewBox="0 0 341 648"
 preserveAspectRatio="xMidYMid meet">
<metadata>
Created by potrace 1.8, written by Peter Selinger 2001-2007
</metadata>
<g transform="translate(0,648) scale(0.170079,-0.170079)"
fill="#000000" stroke="none">
<path d="M907 3773 c-65 -22 -140 -91 -174 -161 -54 -111 -29 -256 62 -347
147 -146 400 -103 492 83 39 79 40 193 3 267 -69 142 -231 208 -383 158z"/>
<path d="M590 3094 c-104 -28 -208 -119 -252 -219 -10 -22 -79 -242 -154 -489
-151 -500 -153 -511 -96 -568 63 -64 165 -41 201 45 10 23 69 216 132 429
l114 388 67 0 66 0 -9 -32 c-5 -18 -94 -337 -197 -708 l-188 -675 188 -3 187
-2 3 -579 c3 -568 3 -580 24 -608 25 -34 79 -63 119 -63 43 0 96 30 122 69
l23 34 0 578 0 579 70 0 69 0 3 -584 c3 -573 3 -585 24 -613 65 -88 197 -79
246 18 17 31 18 81 18 601 l0 568 189 2 189 3 -194 687 c-106 378 -195 697
-199 708 -6 19 -2 20 64 20 39 0 71 -2 71 -5 0 -14 233 -787 247 -819 31 -70
115 -97 177 -57 40 27 55 57 56 111 0 50 -253 898 -290 969 -46 91 -172 187
-284 217 -76 20 -729 19 -806 -2z"/>
</g>
</svg>
