<?xml version="1.0" encoding="UTF-8" standalone="no"?>
<!DOCTYPE svg PUBLIC "-//W3C//DTD SVG 1.0//EN"
 "http://www.w3.org/TR/2001/REC-SVG-20010904/DTD/svg10.dtd" [
 <!ATTLIST svg xmlns:xlink CDATA #FIXED "http://www.w3.org/1999/xlink">
]>
<!-- Generated by Graphviz version 2.20.2 (Tue Mar &#160;2 19:03:41 UTC 2010)
     For user: (alok) Alok Srivastava,,, -->
<!-- Title: controllers_diagram Pages: 1 -->
<svg width="2622pt" height="124pt"
 viewBox="0.00 0.00 2622.00 124.00" xmlns="http://www.w3.org/2000/svg" xmlns:xlink="http://www.w3.org/1999/xlink">
<g id="graph0" class="graph" transform="scale(1 1) rotate(0) translate(4 120)">
<title>controllers_diagram</title>
<polygon style="fill:white;stroke:white;" points="-4,4 -4,-120 2618,-120 2618,4 -4,4"/>
<!-- _diagram_info -->
<g id="node1" class="node"><title>_diagram_info</title>
<text text-anchor="start" x="7.5" y="-88.8" style="font-family:Times New Roman;font-size:13.00;">Controllers diagram</text>
<text text-anchor="start" x="7.5" y="-71.8" style="font-family:Times New Roman;font-size:13.00;">Date: May 01 2011 &#45; 19:41</text>
<text text-anchor="start" x="7.5" y="-54.8" style="font-family:Times New Roman;font-size:13.00;">Migration version: 20110501132203</text>
<text text-anchor="start" x="7.5" y="-37.8" style="font-family:Times New Roman;font-size:13.00;">Generated by RailRoady 1.0.2</text>
<text text-anchor="start" x="7.5" y="-20.8" style="font-family:Times New Roman;font-size:13.00;">http://railroady.prestonlee.com</text>
</g>
<!-- HubsController -->
<g id="node2" class="node"><title>HubsController</title>
<polyline style="fill:none;stroke:black;" points="278,-9 374,-9 "/>
<path style="fill:none;stroke:black;" d="M374,-9C380,-9 386,-15 386,-21"/>
<polyline style="fill:none;stroke:black;" points="386,-21 386,-95 "/>
<path style="fill:none;stroke:black;" d="M386,-95C386,-101 380,-107 374,-107"/>
<polyline style="fill:none;stroke:black;" points="374,-107 278,-107 "/>
<path style="fill:none;stroke:black;" d="M278,-107C272,-107 266,-101 266,-95"/>
<polyline style="fill:none;stroke:black;" points="266,-95 266,-21 "/>
<path style="fill:none;stroke:black;" d="M266,-21C266,-15 272,-9 278,-9"/>
<text text-anchor="middle" x="326" y="-89.9" style="font-family:Times New Roman;font-size:14.00;">HubsController</text>
<polyline style="fill:none;stroke:black;" points="266,-82 386,-82 "/>
<polyline style="fill:none;stroke:black;" points="266,-58 386,-58 "/>
<polyline style="fill:none;stroke:black;" points="266,-34 386,-34 "/>
<text text-anchor="start" x="274" y="-16.9" style="font-family:Times New Roman;font-size:14.00;">_layout</text>
</g>
<!-- EntitiesController -->
<g id="node3" class="node"><title>EntitiesController</title>
<polyline style="fill:none;stroke:black;" points="416,-9 530,-9 "/>
<path style="fill:none;stroke:black;" d="M530,-9C536,-9 542,-15 542,-21"/>
<polyline style="fill:none;stroke:black;" points="542,-21 542,-95 "/>
<path style="fill:none;stroke:black;" d="M542,-95C542,-101 536,-107 530,-107"/>
<polyline style="fill:none;stroke:black;" points="530,-107 416,-107 "/>
<path style="fill:none;stroke:black;" d="M416,-107C410,-107 404,-101 404,-95"/>
<polyline style="fill:none;stroke:black;" points="404,-95 404,-21 "/>
<path style="fill:none;stroke:black;" d="M404,-21C404,-15 410,-9 416,-9"/>
<text text-anchor="middle" x="473" y="-89.9" style="font-family:Times New Roman;font-size:14.00;">EntitiesController</text>
<polyline style="fill:none;stroke:black;" points="404,-82 542,-82 "/>
<polyline style="fill:none;stroke:black;" points="404,-58 542,-58 "/>
<polyline style="fill:none;stroke:black;" points="404,-34 542,-34 "/>
<text text-anchor="start" x="412" y="-16.9" style="font-family:Times New Roman;font-size:14.00;">_layout</text>
</g>
<!-- UsersController -->
<g id="node4" class="node"><title>UsersController</title>
<polyline style="fill:none;stroke:black;" points="572,-9 671,-9 "/>
<path style="fill:none;stroke:black;" d="M671,-9C677,-9 683,-15 683,-21"/>
<polyline style="fill:none;stroke:black;" points="683,-21 683,-95 "/>
<path style="fill:none;stroke:black;" d="M683,-95C683,-101 677,-107 671,-107"/>
<polyline style="fill:none;stroke:black;" points="671,-107 572,-107 "/>
<path style="fill:none;stroke:black;" d="M572,-107C566,-107 560,-101 560,-95"/>
<polyline style="fill:none;stroke:black;" points="560,-95 560,-21 "/>
<path style="fill:none;stroke:black;" d="M560,-21C560,-15 566,-9 572,-9"/>
<text text-anchor="middle" x="621" y="-89.9" style="font-family:Times New Roman;font-size:14.00;">UsersController</text>
<polyline style="fill:none;stroke:black;" points="560,-82 683,-82 "/>
<polyline style="fill:none;stroke:black;" points="560,-58 683,-58 "/>
<polyline style="fill:none;stroke:black;" points="560,-34 683,-34 "/>
<text text-anchor="start" x="567.5" y="-16.9" style="font-family:Times New Roman;font-size:14.00;">_layout</text>
</g>
<!-- ApplicationController -->
<g id="node5" class="node"><title>ApplicationController</title>
<polyline style="fill:none;stroke:black;" points="712,-0 925,-0 "/>
<path style="fill:none;stroke:black;" d="M925,-0C931,-0 937,-6 937,-12"/>
<polyline style="fill:none;stroke:black;" points="937,-12 937,-104 "/>
<path style="fill:none;stroke:black;" d="M937,-104C937,-110 931,-116 925,-116"/>
<polyline style="fill:none;stroke:black;" points="925,-116 712,-116 "/>
<path style="fill:none;stroke:black;" d="M712,-116C706,-116 700,-110 700,-104"/>
<polyline style="fill:none;stroke:black;" points="700,-104 700,-12 "/>
<path style="fill:none;stroke:black;" d="M700,-12C700,-6 706,-0 712,-0"/>
<text text-anchor="middle" x="818" y="-98.9" style="font-family:Times New Roman;font-size:14.00;">ApplicationController</text>
<polyline style="fill:none;stroke:black;" points="700,-91 937,-91 "/>
<text text-anchor="start" x="707.5" y="-73.9" style="font-family:Times New Roman;font-size:14.00;">_one_time_conditions_valid_46?</text>
<polyline style="fill:none;stroke:black;" points="700,-66 937,-66 "/>
<polyline style="fill:none;stroke:black;" points="700,-42 937,-42 "/>
<text text-anchor="start" x="707.5" y="-25.4" style="font-family:Times New Roman;font-size:14.00;">_layout</text>
<text text-anchor="start" x="707.5" y="-8.4" style="font-family:Times New Roman;font-size:14.00;">_run_process_action_callbacks</text>
</g>
<!-- CommentsController -->
<g id="node6" class="node"><title>CommentsController</title>
<polyline style="fill:none;stroke:black;" points="966,-9 1101,-9 "/>
<path style="fill:none;stroke:black;" d="M1101,-9C1107,-9 1113,-15 1113,-21"/>
<polyline style="fill:none;stroke:black;" points="1113,-21 1113,-95 "/>
<path style="fill:none;stroke:black;" d="M1113,-95C1113,-101 1107,-107 1101,-107"/>
<polyline style="fill:none;stroke:black;" points="1101,-107 966,-107 "/>
<path style="fill:none;stroke:black;" d="M966,-107C960,-107 954,-101 954,-95"/>
<polyline style="fill:none;stroke:black;" points="954,-95 954,-21 "/>
<path style="fill:none;stroke:black;" d="M954,-21C954,-15 960,-9 966,-9"/>
<text text-anchor="middle" x="1033" y="-89.9" style="font-family:Times New Roman;font-size:14.00;">CommentsController</text>
<polyline style="fill:none;stroke:black;" points="954,-82 1113,-82 "/>
<polyline style="fill:none;stroke:black;" points="954,-58 1113,-58 "/>
<polyline style="fill:none;stroke:black;" points="954,-34 1113,-34 "/>
<text text-anchor="start" x="961.5" y="-16.9" style="font-family:Times New Roman;font-size:14.00;">_layout</text>
</g>
<!-- PostVisibilitiesController -->
<g id="node7" class="node"><title>PostVisibilitiesController</title>
<polyline style="fill:none;stroke:black;" points="1142,-9 1301,-9 "/>
<path style="fill:none;stroke:black;" d="M1301,-9C1307,-9 1313,-15 1313,-21"/>
<polyline style="fill:none;stroke:black;" points="1313,-21 1313,-95 "/>
<path style="fill:none;stroke:black;" d="M1313,-95C1313,-101 1307,-107 1301,-107"/>
<polyline style="fill:none;stroke:black;" points="1301,-107 1142,-107 "/>
<path style="fill:none;stroke:black;" d="M1142,-107C1136,-107 1130,-101 1130,-95"/>
<polyline style="fill:none;stroke:black;" points="1130,-95 1130,-21 "/>
<path style="fill:none;stroke:black;" d="M1130,-21C1130,-15 1136,-9 1142,-9"/>
<text text-anchor="middle" x="1221" y="-89.9" style="font-family:Times New Roman;font-size:14.00;">PostVisibilitiesController</text>
<polyline style="fill:none;stroke:black;" points="1130,-82 1313,-82 "/>
<polyline style="fill:none;stroke:black;" points="1130,-58 1313,-58 "/>
<polyline style="fill:none;stroke:black;" points="1130,-34 1313,-34 "/>
<text text-anchor="start" x="1137.5" y="-16.9" style="font-family:Times New Roman;font-size:14.00;">_layout</text>
</g>
<!-- LoopsController -->
<g id="node8" class="node"><title>LoopsController</title>
<polyline style="fill:none;stroke:black;" points="1342,-9 1443,-9 "/>
<path style="fill:none;stroke:black;" d="M1443,-9C1449,-9 1455,-15 1455,-21"/>
<polyline style="fill:none;stroke:black;" points="1455,-21 1455,-95 "/>
<path style="fill:none;stroke:black;" d="M1455,-95C1455,-101 1449,-107 1443,-107"/>
<polyline style="fill:none;stroke:black;" points="1443,-107 1342,-107 "/>
<path style="fill:none;stroke:black;" d="M1342,-107C1336,-107 1330,-101 1330,-95"/>
<polyline style="fill:none;stroke:black;" points="1330,-95 1330,-21 "/>
<path style="fill:none;stroke:black;" d="M1330,-21C1330,-15 1336,-9 1342,-9"/>
<text text-anchor="middle" x="1392" y="-89.9" style="font-family:Times New Roman;font-size:14.00;">LoopsController</text>
<polyline style="fill:none;stroke:black;" points="1330,-82 1455,-82 "/>
<polyline style="fill:none;stroke:black;" points="1330,-58 1455,-58 "/>
<polyline style="fill:none;stroke:black;" points="1330,-34 1455,-34 "/>
<text text-anchor="start" x="1337.5" y="-16.9" style="font-family:Times New Roman;font-size:14.00;">_layout</text>
</g>
<!-- LoopViewsController -->
<g id="node9" class="node"><title>LoopViewsController</title>
<polyline style="fill:none;stroke:black;" points="1484,-9 1619,-9 "/>
<path style="fill:none;stroke:black;" d="M1619,-9C1625,-9 1631,-15 1631,-21"/>
<polyline style="fill:none;stroke:black;" points="1631,-21 1631,-95 "/>
<path style="fill:none;stroke:black;" d="M1631,-95C1631,-101 1625,-107 1619,-107"/>
<polyline style="fill:none;stroke:black;" points="1619,-107 1484,-107 "/>
<path style="fill:none;stroke:black;" d="M1484,-107C1478,-107 1472,-101 1472,-95"/>
<polyline style="fill:none;stroke:black;" points="1472,-95 1472,-21 "/>
<path style="fill:none;stroke:black;" d="M1472,-21C1472,-15 1478,-9 1484,-9"/>
<text text-anchor="middle" x="1551" y="-89.9" style="font-family:Times New Roman;font-size:14.00;">LoopViewsController</text>
<polyline style="fill:none;stroke:black;" points="1472,-82 1631,-82 "/>
<polyline style="fill:none;stroke:black;" points="1472,-58 1631,-58 "/>
<polyline style="fill:none;stroke:black;" points="1472,-34 1631,-34 "/>
<text text-anchor="start" x="1479.5" y="-16.9" style="font-family:Times New Roman;font-size:14.00;">_layout</text>
</g>
<!-- PostsController -->
<g id="node10" class="node"><title>PostsController</title>
<polyline style="fill:none;stroke:black;" points="1660,-9 1757,-9 "/>
<path style="fill:none;stroke:black;" d="M1757,-9C1763,-9 1769,-15 1769,-21"/>
<polyline style="fill:none;stroke:black;" points="1769,-21 1769,-95 "/>
<path style="fill:none;stroke:black;" d="M1769,-95C1769,-101 1763,-107 1757,-107"/>
<polyline style="fill:none;stroke:black;" points="1757,-107 1660,-107 "/>
<path style="fill:none;stroke:black;" d="M1660,-107C1654,-107 1648,-101 1648,-95"/>
<polyline style="fill:none;stroke:black;" points="1648,-95 1648,-21 "/>
<path style="fill:none;stroke:black;" d="M1648,-21C1648,-15 1654,-9 1660,-9"/>
<text text-anchor="middle" x="1708" y="-89.9" style="font-family:Times New Roman;font-size:14.00;">PostsController</text>
<polyline style="fill:none;stroke:black;" points="1648,-82 1769,-82 "/>
<polyline style="fill:none;stroke:black;" points="1648,-58 1769,-58 "/>
<polyline style="fill:none;stroke:black;" points="1648,-34 1769,-34 "/>
<text text-anchor="start" x="1655.5" y="-16.9" style="font-family:Times New Roman;font-size:14.00;">_layout</text>
</g>
<!-- ActivitiesController -->
<g id="node11" class="node"><title>ActivitiesController</title>
<polyline style="fill:none;stroke:black;" points="1798,-9 1922,-9 "/>
<path style="fill:none;stroke:black;" d="M1922,-9C1928,-9 1934,-15 1934,-21"/>
<polyline style="fill:none;stroke:black;" points="1934,-21 1934,-95 "/>
<path style="fill:none;stroke:black;" d="M1934,-95C1934,-101 1928,-107 1922,-107"/>
<polyline style="fill:none;stroke:black;" points="1922,-107 1798,-107 "/>
<path style="fill:none;stroke:black;" d="M1798,-107C1792,-107 1786,-101 1786,-95"/>
<polyline style="fill:none;stroke:black;" points="1786,-95 1786,-21 "/>
<path style="fill:none;stroke:black;" d="M1786,-21C1786,-15 1792,-9 1798,-9"/>
<text text-anchor="middle" x="1860" y="-89.9" style="font-family:Times New Roman;font-size:14.00;">ActivitiesController</text>
<polyline style="fill:none;stroke:black;" points="1786,-82 1934,-82 "/>
<polyline style="fill:none;stroke:black;" points="1786,-58 1934,-58 "/>
<polyline style="fill:none;stroke:black;" points="1786,-34 1934,-34 "/>
<text text-anchor="start" x="1794" y="-16.9" style="font-family:Times New Roman;font-size:14.00;">_layout</text>
</g>
<!-- ProfilesController -->
<g id="node12" class="node"><title>ProfilesController</title>
<polyline style="fill:none;stroke:black;" points="1964,-9 2075,-9 "/>
<path style="fill:none;stroke:black;" d="M2075,-9C2081,-9 2087,-15 2087,-21"/>
<polyline style="fill:none;stroke:black;" points="2087,-21 2087,-95 "/>
<path style="fill:none;stroke:black;" d="M2087,-95C2087,-101 2081,-107 2075,-107"/>
<polyline style="fill:none;stroke:black;" points="2075,-107 1964,-107 "/>
<path style="fill:none;stroke:black;" d="M1964,-107C1958,-107 1952,-101 1952,-95"/>
<polyline style="fill:none;stroke:black;" points="1952,-95 1952,-21 "/>
<path style="fill:none;stroke:black;" d="M1952,-21C1952,-15 1958,-9 1964,-9"/>
<text text-anchor="middle" x="2019" y="-89.9" style="font-family:Times New Roman;font-size:14.00;">ProfilesController</text>
<polyline style="fill:none;stroke:black;" points="1952,-82 2087,-82 "/>
<polyline style="fill:none;stroke:black;" points="1952,-58 2087,-58 "/>
<polyline style="fill:none;stroke:black;" points="1952,-34 2087,-34 "/>
<text text-anchor="start" x="1959.5" y="-16.9" style="font-family:Times New Roman;font-size:14.00;">_layout</text>
</g>
<!-- LikesController -->
<g id="node13" class="node"><title>LikesController</title>
<polyline style="fill:none;stroke:black;" points="2116,-9 2212,-9 "/>
<path style="fill:none;stroke:black;" d="M2212,-9C2218,-9 2224,-15 2224,-21"/>
<polyline style="fill:none;stroke:black;" points="2224,-21 2224,-95 "/>
<path style="fill:none;stroke:black;" d="M2224,-95C2224,-101 2218,-107 2212,-107"/>
<polyline style="fill:none;stroke:black;" points="2212,-107 2116,-107 "/>
<path style="fill:none;stroke:black;" d="M2116,-107C2110,-107 2104,-101 2104,-95"/>
<polyline style="fill:none;stroke:black;" points="2104,-95 2104,-21 "/>
<path style="fill:none;stroke:black;" d="M2104,-21C2104,-15 2110,-9 2116,-9"/>
<text text-anchor="middle" x="2164" y="-89.9" style="font-family:Times New Roman;font-size:14.00;">LikesController</text>
<polyline style="fill:none;stroke:black;" points="2104,-82 2224,-82 "/>
<polyline style="fill:none;stroke:black;" points="2104,-58 2224,-58 "/>
<polyline style="fill:none;stroke:black;" points="2104,-34 2224,-34 "/>
<text text-anchor="start" x="2112" y="-16.9" style="font-family:Times New Roman;font-size:14.00;">_layout</text>
</g>
<!-- ContactsController -->
<g id="node14" class="node"><title>ContactsController</title>
<polyline style="fill:none;stroke:black;" points="2254,-9 2376,-9 "/>
<path style="fill:none;stroke:black;" d="M2376,-9C2382,-9 2388,-15 2388,-21"/>
<polyline style="fill:none;stroke:black;" points="2388,-21 2388,-95 "/>
<path style="fill:none;stroke:black;" d="M2388,-95C2388,-101 2382,-107 2376,-107"/>
<polyline style="fill:none;stroke:black;" points="2376,-107 2254,-107 "/>
<path style="fill:none;stroke:black;" d="M2254,-107C2248,-107 2242,-101 2242,-95"/>
<polyline style="fill:none;stroke:black;" points="2242,-95 2242,-21 "/>
<path style="fill:none;stroke:black;" d="M2242,-21C2242,-15 2248,-9 2254,-9"/>
<text text-anchor="middle" x="2315" y="-89.9" style="font-family:Times New Roman;font-size:14.00;">ContactsController</text>
<polyline style="fill:none;stroke:black;" points="2242,-82 2388,-82 "/>
<polyline style="fill:none;stroke:black;" points="2242,-58 2388,-58 "/>
<polyline style="fill:none;stroke:black;" points="2242,-34 2388,-34 "/>
<text text-anchor="start" x="2250" y="-16.9" style="font-family:Times New Roman;font-size:14.00;">_layout</text>
</g>
<!-- LoopMembershipsController -->
<g id="node15" class="node"><title>LoopMembershipsController</title>
<polyline style="fill:none;stroke:black;" points="2418,-9 2602,-9 "/>
<path style="fill:none;stroke:black;" d="M2602,-9C2608,-9 2614,-15 2614,-21"/>
<polyline style="fill:none;stroke:black;" points="2614,-21 2614,-95 "/>
<path style="fill:none;stroke:black;" d="M2614,-95C2614,-101 2608,-107 2602,-107"/>
<polyline style="fill:none;stroke:black;" points="2602,-107 2418,-107 "/>
<path style="fill:none;stroke:black;" d="M2418,-107C2412,-107 2406,-101 2406,-95"/>
<polyline style="fill:none;stroke:black;" points="2406,-95 2406,-21 "/>
<path style="fill:none;stroke:black;" d="M2406,-21C2406,-15 2412,-9 2418,-9"/>
<text text-anchor="middle" x="2510" y="-89.9" style="font-family:Times New Roman;font-size:14.00;">LoopMembershipsController</text>
<polyline style="fill:none;stroke:black;" points="2406,-82 2614,-82 "/>
<polyline style="fill:none;stroke:black;" points="2406,-58 2614,-58 "/>
<polyline style="fill:none;stroke:black;" points="2406,-34 2614,-34 "/>
<text text-anchor="start" x="2414" y="-16.9" style="font-family:Times New Roman;font-size:14.00;">_layout</text>
</g>
</g>
</svg>
