<?xml version="1.0" encoding="UTF-8" standalone="no"?>
<!DOCTYPE svg PUBLIC "-//W3C//DTD SVG 1.0//EN"
 "http://www.w3.org/TR/2001/REC-SVG-20010904/DTD/svg10.dtd" [
 <!ATTLIST svg xmlns:xlink CDATA #FIXED "http://www.w3.org/1999/xlink">
]>
<!-- Generated by Graphviz version 2.20.2 (Tue Mar &#160;2 19:03:41 UTC 2010)
     For user: (alok) Alok Srivastava,,, -->
<!-- Title: models_diagram Pages: 1 -->
<svg width="1559pt" height="1682pt"
 viewBox="0.00 0.00 1559.00 1682.00" xmlns="http://www.w3.org/2000/svg" xmlns:xlink="http://www.w3.org/1999/xlink">
<g id="graph0" class="graph" transform="scale(1 1) rotate(0) translate(4 1678)">
<title>models_diagram</title>
<polygon style="fill:white;stroke:white;" points="-4,4 -4,-1678 1555,-1678 1555,4 -4,4"/>
<!-- _diagram_info -->
<g id="node1" class="node"><title>_diagram_info</title>
<text text-anchor="start" x="63.5" y="-1628.8" style="font-family:Times New Roman;font-size:13.00;">Models diagram</text>
<text text-anchor="start" x="63.5" y="-1611.8" style="font-family:Times New Roman;font-size:13.00;">Date: May 01 2011 &#45; 19:37</text>
<text text-anchor="start" x="63.5" y="-1594.8" style="font-family:Times New Roman;font-size:13.00;">Migration version: 20110501132203</text>
<text text-anchor="start" x="63.5" y="-1577.8" style="font-family:Times New Roman;font-size:13.00;">Generated by RailRoady 1.0.2</text>
<text text-anchor="start" x="63.5" y="-1560.8" style="font-family:Times New Roman;font-size:13.00;">http://railroady.prestonlee.com</text>
</g>
<!-- LoopView -->
<g id="node2" class="node"><title>LoopView</title>
<polyline style="fill:none;stroke:black;" points="315,-121 456,-121 "/>
<path style="fill:none;stroke:black;" d="M456,-121C462,-121 468,-127 468,-133"/>
<polyline style="fill:none;stroke:black;" points="468,-133 468,-176 "/>
<path style="fill:none;stroke:black;" d="M468,-176C468,-182 462,-188 456,-188"/>
<polyline style="fill:none;stroke:black;" points="456,-188 315,-188 "/>
<path style="fill:none;stroke:black;" d="M315,-188C309,-188 303,-182 303,-176"/>
<polyline style="fill:none;stroke:black;" points="303,-176 303,-133 "/>
<path style="fill:none;stroke:black;" d="M303,-133C303,-127 309,-121 315,-121"/>
<text text-anchor="middle" x="385" y="-170.9" style="font-family:Times New Roman;font-size:14.00;">LoopView</text>
<polyline style="fill:none;stroke:black;" points="303,-163 468,-163 "/>
<text text-anchor="start" x="310.5" y="-146.4" style="font-family:Times New Roman;font-size:14.00;">created_at :datetime</text>
<text text-anchor="start" x="310.5" y="-129.4" style="font-family:Times New Roman;font-size:14.00;">updated_at :datetime</text>
</g>
<!-- Activity -->
<g id="node3" class="node"><title>Activity</title>
<polyline style="fill:none;stroke:black;" points="334,-1522 508,-1522 "/>
<path style="fill:none;stroke:black;" d="M508,-1522C514,-1522 520,-1528 520,-1534"/>
<polyline style="fill:none;stroke:black;" points="520,-1534 520,-1662 "/>
<path style="fill:none;stroke:black;" d="M520,-1662C520,-1668 514,-1674 508,-1674"/>
<polyline style="fill:none;stroke:black;" points="508,-1674 334,-1674 "/>
<path style="fill:none;stroke:black;" d="M334,-1674C328,-1674 322,-1668 322,-1662"/>
<polyline style="fill:none;stroke:black;" points="322,-1662 322,-1534 "/>
<path style="fill:none;stroke:black;" d="M322,-1534C322,-1528 328,-1522 334,-1522"/>
<text text-anchor="middle" x="421" y="-1656.9" style="font-family:Times New Roman;font-size:14.00;">Activity</text>
<polyline style="fill:none;stroke:black;" points="322,-1649 520,-1649 "/>
<text text-anchor="start" x="330" y="-1631.9" style="font-family:Times New Roman;font-size:14.00;">activity_name :string</text>
<text text-anchor="start" x="330" y="-1614.9" style="font-family:Times New Roman;font-size:14.00;">activity_description :string</text>
<text text-anchor="start" x="330" y="-1597.9" style="font-family:Times New Roman;font-size:14.00;">activity_category :string</text>
<text text-anchor="start" x="330" y="-1580.9" style="font-family:Times New Roman;font-size:14.00;">activity_abuse :integer</text>
<text text-anchor="start" x="330" y="-1563.9" style="font-family:Times New Roman;font-size:14.00;">activity_quick_code :string</text>
<text text-anchor="start" x="330" y="-1546.9" style="font-family:Times New Roman;font-size:14.00;">created_at :datetime</text>
<text text-anchor="start" x="330" y="-1529.9" style="font-family:Times New Roman;font-size:14.00;">updated_at :datetime</text>
</g>
<!-- Activity&#45;&gt;LoopView -->
<g id="edge10" class="edge"><title>Activity&#45;&gt;LoopView</title>
<path style="fill:none;stroke:black;" d="M385,-1514C381,-1505 378,-1495 375,-1486 273,-1145 254,-1054 219,-700 200,-497 112,-414 219,-242 239,-211 260,-222 292,-206 300,-202 308,-197 316,-193"/>
<ellipse style="fill:none;stroke:black;" cx="386.595" cy="-1518.25" rx="4.00001" ry="4.00001"/>
<polygon style="fill:black;stroke:black;" points="316.258,-192.856 327.185,-191.934 320.629,-190.428 325,-188 325,-188 325,-188 320.629,-190.428 322.815,-184.066 316.258,-192.856 316.258,-192.856"/>
</g>
<!-- User -->
<g id="node4" class="node"><title>User</title>
<polyline style="fill:none;stroke:black;" points="550,-1350 697,-1350 "/>
<path style="fill:none;stroke:black;" d="M697,-1350C703,-1350 709,-1356 709,-1362"/>
<polyline style="fill:none;stroke:black;" points="709,-1362 709,-1473 "/>
<path style="fill:none;stroke:black;" d="M709,-1473C709,-1479 703,-1485 697,-1485"/>
<polyline style="fill:none;stroke:black;" points="697,-1485 550,-1485 "/>
<path style="fill:none;stroke:black;" d="M550,-1485C544,-1485 538,-1479 538,-1473"/>
<polyline style="fill:none;stroke:black;" points="538,-1473 538,-1362 "/>
<path style="fill:none;stroke:black;" d="M538,-1362C538,-1356 544,-1350 550,-1350"/>
<text text-anchor="middle" x="623" y="-1467.9" style="font-family:Times New Roman;font-size:14.00;">User</text>
<polyline style="fill:none;stroke:black;" points="538,-1460 709,-1460 "/>
<text text-anchor="start" x="545.5" y="-1443.4" style="font-family:Times New Roman;font-size:14.00;">username :string</text>
<text text-anchor="start" x="545.5" y="-1426.4" style="font-family:Times New Roman;font-size:14.00;">show_help :boolean</text>
<text text-anchor="start" x="545.5" y="-1409.4" style="font-family:Times New Roman;font-size:14.00;">disable_email :boolean</text>
<text text-anchor="start" x="545.5" y="-1392.4" style="font-family:Times New Roman;font-size:14.00;">email :string</text>
<text text-anchor="start" x="545.5" y="-1375.4" style="font-family:Times New Roman;font-size:14.00;">created_at :datetime</text>
<text text-anchor="start" x="545.5" y="-1358.4" style="font-family:Times New Roman;font-size:14.00;">updated_at :datetime</text>
</g>
<!-- Activity&#45;&gt;User -->
<g id="edge6" class="edge"><title>Activity&#45;&gt;User</title>
<path style="fill:none;stroke:black;" d="M514,-1515C523,-1507 532,-1500 540,-1492"/>
<polygon style="fill:black;stroke:black;" points="513.526,-1515.41 503.037,-1518.61 509.763,-1518.71 506,-1522 506,-1522 506,-1522 509.763,-1518.71 508.963,-1525.39 513.526,-1515.41 513.526,-1515.41"/>
<polygon style="fill:black;stroke:black;" points="540.474,-1491.59 550.963,-1488.39 544.237,-1488.29 548,-1485 548,-1485 548,-1485 544.237,-1488.29 545.037,-1481.61 540.474,-1491.59 540.474,-1491.59"/>
</g>
<!-- Loop -->
<g id="node6" class="node"><title>Loop</title>
<polyline style="fill:none;stroke:black;" points="1186,-104 1327,-104 "/>
<path style="fill:none;stroke:black;" d="M1327,-104C1333,-104 1339,-110 1339,-116"/>
<polyline style="fill:none;stroke:black;" points="1339,-116 1339,-193 "/>
<path style="fill:none;stroke:black;" d="M1339,-193C1339,-199 1333,-205 1327,-205"/>
<polyline style="fill:none;stroke:black;" points="1327,-205 1186,-205 "/>
<path style="fill:none;stroke:black;" d="M1186,-205C1180,-205 1174,-199 1174,-193"/>
<polyline style="fill:none;stroke:black;" points="1174,-193 1174,-116 "/>
<path style="fill:none;stroke:black;" d="M1174,-116C1174,-110 1180,-104 1186,-104"/>
<text text-anchor="middle" x="1256" y="-187.9" style="font-family:Times New Roman;font-size:14.00;">Loop</text>
<polyline style="fill:none;stroke:black;" points="1174,-180 1339,-180 "/>
<text text-anchor="start" x="1181.5" y="-163.4" style="font-family:Times New Roman;font-size:14.00;">name :string</text>
<text text-anchor="start" x="1181.5" y="-146.4" style="font-family:Times New Roman;font-size:14.00;">public :boolean</text>
<text text-anchor="start" x="1181.5" y="-129.4" style="font-family:Times New Roman;font-size:14.00;">created_at :datetime</text>
<text text-anchor="start" x="1181.5" y="-112.4" style="font-family:Times New Roman;font-size:14.00;">updated_at :datetime</text>
</g>
<!-- Activity&#45;&gt;Loop -->
<g id="edge12" class="edge"><title>Activity&#45;&gt;Loop</title>
<path style="fill:none;stroke:black;" d="M530,-1579C752,-1540 1247,-1439 1357,-1314 1514,-1133 1588,-441 1457,-242 1433,-205 1389,-183 1349,-172"/>
<polygon style="fill:black;stroke:black;" points="529.806,-1579.04 519.117,-1576.59 524.903,-1580.02 520,-1581 520,-1581 520,-1581 524.903,-1580.02 520.883,-1585.41 529.806,-1579.04 529.806,-1579.04"/>
<polygon style="fill:black;stroke:black;" points="1348.58,-171.874 1340.29,-164.69 1343.79,-170.437 1339,-169 1339,-169 1339,-169 1343.79,-170.437 1337.71,-173.31 1348.58,-171.874 1348.58,-171.874"/>
</g>
<!-- Post -->
<g id="node8" class="node"><title>Post</title>
<polyline style="fill:none;stroke:black;" points="877,-923 1044,-923 "/>
<path style="fill:none;stroke:black;" d="M1044,-923C1050,-923 1056,-929 1056,-935"/>
<polyline style="fill:none;stroke:black;" points="1056,-935 1056,-1114 "/>
<path style="fill:none;stroke:black;" d="M1056,-1114C1056,-1120 1050,-1126 1044,-1126"/>
<polyline style="fill:none;stroke:black;" points="1044,-1126 877,-1126 "/>
<path style="fill:none;stroke:black;" d="M877,-1126C871,-1126 865,-1120 865,-1114"/>
<polyline style="fill:none;stroke:black;" points="865,-1114 865,-935 "/>
<path style="fill:none;stroke:black;" d="M865,-935C865,-929 871,-923 877,-923"/>
<text text-anchor="middle" x="960" y="-1108.9" style="font-family:Times New Roman;font-size:14.00;">Post</text>
<polyline style="fill:none;stroke:black;" points="865,-1101 1056,-1101 "/>
<text text-anchor="start" x="872.5" y="-1084.4" style="font-family:Times New Roman;font-size:14.00;">activity_text :string</text>
<text text-anchor="start" x="872.5" y="-1067.4" style="font-family:Times New Roman;font-size:14.00;">message_text :text</text>
<text text-anchor="start" x="872.5" y="-1050.4" style="font-family:Times New Roman;font-size:14.00;">optional_comment :text</text>
<text text-anchor="start" x="872.5" y="-1033.4" style="font-family:Times New Roman;font-size:14.00;">attachment_url :string</text>
<text text-anchor="start" x="872.5" y="-1016.4" style="font-family:Times New Roman;font-size:14.00;">attachment_url_s :string</text>
<text text-anchor="start" x="872.5" y="-999.4" style="font-family:Times New Roman;font-size:14.00;">attachment_name :string</text>
<text text-anchor="start" x="872.5" y="-982.4" style="font-family:Times New Roman;font-size:14.00;">attachment_type :string</text>
<text text-anchor="start" x="872.5" y="-965.4" style="font-family:Times New Roman;font-size:14.00;">public :boolean</text>
<text text-anchor="start" x="872.5" y="-948.4" style="font-family:Times New Roman;font-size:14.00;">created_at :datetime</text>
<text text-anchor="start" x="872.5" y="-931.4" style="font-family:Times New Roman;font-size:14.00;">updated_at :datetime</text>
</g>
<!-- Activity&#45;&gt;Post -->
<g id="edge8" class="edge"><title>Activity&#45;&gt;Post</title>
<path style="fill:none;stroke:black;" d="M530,-1576C591,-1560 665,-1533 717,-1486 823,-1392 891,-1240 927,-1136"/>
<polygon style="fill:black;stroke:black;" points="529.578,-1576.13 518.707,-1574.69 524.789,-1577.56 520,-1579 520,-1579 520,-1579 524.789,-1577.56 521.293,-1583.31 529.578,-1576.13 529.578,-1576.13"/>
<polygon style="fill:black;stroke:black;" points="927.126,-1135.58 934.31,-1127.29 928.563,-1130.79 930,-1126 930,-1126 930,-1126 928.563,-1130.79 925.69,-1124.71 927.126,-1135.58 927.126,-1135.58"/>
</g>
<!-- Hub -->
<g id="node9" class="node"><title>Hub</title>
<polyline style="fill:none;stroke:black;" points="131,-121 272,-121 "/>
<path style="fill:none;stroke:black;" d="M272,-121C278,-121 284,-127 284,-133"/>
<polyline style="fill:none;stroke:black;" points="284,-133 284,-176 "/>
<path style="fill:none;stroke:black;" d="M284,-176C284,-182 278,-188 272,-188"/>
<polyline style="fill:none;stroke:black;" points="272,-188 131,-188 "/>
<path style="fill:none;stroke:black;" d="M131,-188C125,-188 119,-182 119,-176"/>
<polyline style="fill:none;stroke:black;" points="119,-176 119,-133 "/>
<path style="fill:none;stroke:black;" d="M119,-133C119,-127 125,-121 131,-121"/>
<text text-anchor="middle" x="201" y="-170.9" style="font-family:Times New Roman;font-size:14.00;">Hub</text>
<polyline style="fill:none;stroke:black;" points="119,-163 284,-163 "/>
<text text-anchor="start" x="126.5" y="-146.4" style="font-family:Times New Roman;font-size:14.00;">created_at :datetime</text>
<text text-anchor="start" x="126.5" y="-129.4" style="font-family:Times New Roman;font-size:14.00;">updated_at :datetime</text>
</g>
<!-- Activity&#45;&gt;Hub -->
<g id="edge2" class="edge"><title>Activity&#45;&gt;Hub</title>
<path style="fill:none;stroke:black;" d="M345,-1516C300,-1462 247,-1389 221,-1314 65,-863 69,-709 164,-242 167,-227 173,-211 179,-197"/>
<ellipse style="fill:none;stroke:black;" cx="347.439" cy="-1518.93" rx="4.00002" ry="4.00002"/>
<polygon style="fill:black;stroke:black;" points="178.939,-197.138 187.112,-189.828 180.969,-192.569 183,-188 183,-188 183,-188 180.969,-192.569 178.888,-186.172 178.939,-197.138 178.939,-197.138"/>
</g>
<!-- Entity -->
<g id="node10" class="node"><title>Entity</title>
<polyline style="fill:none;stroke:black;" points="240,-242 531,-242 "/>
<path style="fill:none;stroke:black;" d="M531,-242C537,-242 543,-248 543,-254"/>
<polyline style="fill:none;stroke:black;" points="543,-254 543,-688 "/>
<path style="fill:none;stroke:black;" d="M543,-688C543,-694 537,-700 531,-700"/>
<polyline style="fill:none;stroke:black;" points="531,-700 240,-700 "/>
<path style="fill:none;stroke:black;" d="M240,-700C234,-700 228,-694 228,-688"/>
<polyline style="fill:none;stroke:black;" points="228,-688 228,-254 "/>
<path style="fill:none;stroke:black;" d="M228,-254C228,-248 234,-242 240,-242"/>
<text text-anchor="middle" x="385" y="-682.9" style="font-family:Times New Roman;font-size:14.00;">Entity</text>
<polyline style="fill:none;stroke:black;" points="228,-675 543,-675 "/>
<text text-anchor="start" x="235.5" y="-657.9" style="font-family:Times New Roman;font-size:14.00;">entity_name :string</text>
<text text-anchor="start" x="235.5" y="-640.9" style="font-family:Times New Roman;font-size:14.00;">entity_type :string</text>
<text text-anchor="start" x="235.5" y="-623.9" style="font-family:Times New Roman;font-size:14.00;">entity_url :string</text>
<text text-anchor="start" x="235.5" y="-606.9" style="font-family:Times New Roman;font-size:14.00;">entity_location_lat :integer</text>
<text text-anchor="start" x="235.5" y="-589.9" style="font-family:Times New Roman;font-size:14.00;">entity_location_long :integer</text>
<text text-anchor="start" x="235.5" y="-572.9" style="font-family:Times New Roman;font-size:14.00;">entity_most_popular_location_lat :integer</text>
<text text-anchor="start" x="235.5" y="-555.9" style="font-family:Times New Roman;font-size:14.00;">entity_most_popular_location_long :integer</text>
<text text-anchor="start" x="235.5" y="-538.9" style="font-family:Times New Roman;font-size:14.00;">entity_photo_l :string</text>
<text text-anchor="start" x="235.5" y="-521.9" style="font-family:Times New Roman;font-size:14.00;">entity_photo_m :string</text>
<text text-anchor="start" x="235.5" y="-504.9" style="font-family:Times New Roman;font-size:14.00;">entity_photo_s :string</text>
<text text-anchor="start" x="235.5" y="-487.9" style="font-family:Times New Roman;font-size:14.00;">entity_desc :string</text>
<text text-anchor="start" x="235.5" y="-470.9" style="font-family:Times New Roman;font-size:14.00;">entity_category :string</text>
<text text-anchor="start" x="235.5" y="-453.9" style="font-family:Times New Roman;font-size:14.00;">entity_vote_ups :integer</text>
<text text-anchor="start" x="235.5" y="-436.9" style="font-family:Times New Roman;font-size:14.00;">entity_vote_downs :integer</text>
<text text-anchor="start" x="235.5" y="-419.9" style="font-family:Times New Roman;font-size:14.00;">entity_is_business_active :boolean</text>
<text text-anchor="start" x="235.5" y="-402.9" style="font-family:Times New Roman;font-size:14.00;">entity_announcements :string</text>
<text text-anchor="start" x="235.5" y="-385.9" style="font-family:Times New Roman;font-size:14.00;">entity_page_theme :string</text>
<text text-anchor="start" x="235.5" y="-368.9" style="font-family:Times New Roman;font-size:14.00;">entity_active :boolean</text>
<text text-anchor="start" x="235.5" y="-351.9" style="font-family:Times New Roman;font-size:14.00;">entity_abuse :integer</text>
<text text-anchor="start" x="235.5" y="-334.9" style="font-family:Times New Roman;font-size:14.00;">entity_adult_check :boolean</text>
<text text-anchor="start" x="235.5" y="-317.9" style="font-family:Times New Roman;font-size:14.00;">entity_creator_name :string</text>
<text text-anchor="start" x="235.5" y="-300.9" style="font-family:Times New Roman;font-size:14.00;">entity_most_popular_name :string</text>
<text text-anchor="start" x="235.5" y="-283.9" style="font-family:Times New Roman;font-size:14.00;">entity_closest_activity :string</text>
<text text-anchor="start" x="235.5" y="-266.9" style="font-family:Times New Roman;font-size:14.00;">created_at :datetime</text>
<text text-anchor="start" x="235.5" y="-249.9" style="font-family:Times New Roman;font-size:14.00;">updated_at :datetime</text>
</g>
<!-- Activity&#45;&gt;Entity -->
<g id="edge4" class="edge"><title>Activity&#45;&gt;Entity</title>
<path style="fill:none;stroke:black;" d="M403,-1512C391,-1456 379,-1381 373,-1314 356,-1111 361,-879 369,-710"/>
<polygon style="fill:black;stroke:black;" points="403.039,-1512.19 400.587,-1522.88 404.019,-1517.1 405,-1522 405,-1522 405,-1522 404.019,-1517.1 409.413,-1521.12 403.039,-1512.19 403.039,-1512.19"/>
<polygon style="fill:black;stroke:black;" points="369.005,-709.95 374.478,-700.448 369.502,-704.975 370,-700 370,-700 370,-700 369.502,-704.975 365.522,-699.552 369.005,-709.95 369.005,-709.95"/>
</g>
<!-- Comment -->
<g id="node5" class="node"><title>Comment</title>
<polyline style="fill:none;stroke:black;" points="754,-395 921,-395 "/>
<path style="fill:none;stroke:black;" d="M921,-395C927,-395 933,-401 933,-407"/>
<polyline style="fill:none;stroke:black;" points="933,-407 933,-535 "/>
<path style="fill:none;stroke:black;" d="M933,-535C933,-541 927,-547 921,-547"/>
<polyline style="fill:none;stroke:black;" points="921,-547 754,-547 "/>
<path style="fill:none;stroke:black;" d="M754,-547C748,-547 742,-541 742,-535"/>
<polyline style="fill:none;stroke:black;" points="742,-535 742,-407 "/>
<path style="fill:none;stroke:black;" d="M742,-407C742,-401 748,-395 754,-395"/>
<text text-anchor="middle" x="837" y="-529.9" style="font-family:Times New Roman;font-size:14.00;">Comment</text>
<polyline style="fill:none;stroke:black;" points="742,-522 933,-522 "/>
<text text-anchor="start" x="749.5" y="-504.9" style="font-family:Times New Roman;font-size:14.00;">comment_text :string</text>
<text text-anchor="start" x="749.5" y="-487.9" style="font-family:Times New Roman;font-size:14.00;">attachment_url :string</text>
<text text-anchor="start" x="749.5" y="-470.9" style="font-family:Times New Roman;font-size:14.00;">attachment_url_s :string</text>
<text text-anchor="start" x="749.5" y="-453.9" style="font-family:Times New Roman;font-size:14.00;">attachment_name :string</text>
<text text-anchor="start" x="749.5" y="-436.9" style="font-family:Times New Roman;font-size:14.00;">attachment_type :string</text>
<text text-anchor="start" x="749.5" y="-419.9" style="font-family:Times New Roman;font-size:14.00;">created_at :datetime</text>
<text text-anchor="start" x="749.5" y="-402.9" style="font-family:Times New Roman;font-size:14.00;">updated_at :datetime</text>
</g>
<!-- User&#45;&gt;Comment -->
<g id="edge18" class="edge"><title>User&#45;&gt;Comment</title>
<path style="fill:none;stroke:black;" d="M640,-1342C679,-1167 776,-741 818,-557"/>
<ellipse style="fill:none;stroke:black;" cx="638.97" cy="-1346.12" rx="4.00001" ry="4.00001"/>
<polygon style="fill:black;stroke:black;" points="818.039,-556.806 824.413,-547.883 819.019,-551.903 820,-547 820,-547 820,-547 819.019,-551.903 815.587,-546.117 818.039,-556.806 818.039,-556.806"/>
</g>
<!-- User&#45;&gt;Loop -->
<g id="edge22" class="edge"><title>User&#45;&gt;Loop</title>
<path style="fill:none;stroke:black;" d="M717,-1407C832,-1392 1015,-1361 1064,-1314 1268,-1117 1190,-979 1234,-700 1261,-525 1260,-316 1258,-215"/>
<ellipse style="fill:none;stroke:black;" cx="712.969" cy="-1407.5" rx="4.00001" ry="4.00001"/>
<polygon style="fill:black;stroke:black;" points="1258,-215 1262.5,-205 1258,-210 1258,-205 1258,-205 1258,-205 1258,-210 1253.5,-205 1258,-215 1258,-215"/>
</g>
<!-- User&#45;&gt;Post -->
<g id="edge30" class="edge"><title>User&#45;&gt;Post</title>
<path style="fill:none;stroke:black;" d="M717,-1361C737,-1346 756,-1331 773,-1314 824,-1261 869,-1192 902,-1135"/>
<polygon style="fill:black;stroke:black;" points="717,-1361 706.3,-1363.4 713,-1364 709,-1367 709,-1367 709,-1367 713,-1364 711.7,-1370.6 717,-1361 717,-1361"/>
<polygon style="fill:black;stroke:black;" points="902.144,-1134.74 910.934,-1128.19 904.572,-1130.37 907,-1126 907,-1126 907,-1126 904.572,-1130.37 903.066,-1123.81 902.144,-1134.74 902.144,-1134.74"/>
</g>
<!-- User&#45;&gt;Hub -->
<g id="edge26" class="edge"><title>User&#45;&gt;Hub</title>
<path style="fill:none;stroke:black;" d="M530,-1401C477,-1387 412,-1361 373,-1314 206,-1111 372,-969 252,-736 243,-716 228,-720 219,-700 149,-526 177,-293 192,-198"/>
<ellipse style="fill:none;stroke:black;" cx="534.119" cy="-1402.03" rx="4.00001" ry="4.00001"/>
<polygon style="fill:black;stroke:black;" points="192.039,-197.806 198.413,-188.883 193.019,-192.903 194,-188 194,-188 194,-188 193.019,-192.903 189.587,-187.117 192.039,-197.806 192.039,-197.806"/>
</g>
<!-- User&#45;&gt;Entity -->
<g id="edge28" class="edge"><title>User&#45;&gt;Entity</title>
<path style="fill:none;stroke:black;" d="M620,-1340C613,-1167 597,-762 585,-736 577,-715 566,-716 551,-700 550,-699 550,-699 549,-698"/>
<polygon style="fill:black;stroke:black;" points="620,-1340 615.5,-1350 620,-1345 620,-1350 620,-1350 620,-1350 620,-1345 624.5,-1350 620,-1340 620,-1340"/>
<polygon style="fill:black;stroke:black;" points="549,-698 546.6,-687.3 546,-694 543,-690 543,-690 543,-690 546,-694 539.4,-692.7 549,-698 549,-698"/>
</g>
<!-- Profile -->
<g id="node11" class="node"><title>Profile</title>
<polyline style="fill:none;stroke:black;" points="394,-736 565,-736 "/>
<path style="fill:none;stroke:black;" d="M565,-736C571,-736 577,-742 577,-748"/>
<polyline style="fill:none;stroke:black;" points="577,-748 577,-1301 "/>
<path style="fill:none;stroke:black;" d="M577,-1301C577,-1307 571,-1313 565,-1313"/>
<polyline style="fill:none;stroke:black;" points="565,-1313 394,-1313 "/>
<path style="fill:none;stroke:black;" d="M394,-1313C388,-1313 382,-1307 382,-1301"/>
<polyline style="fill:none;stroke:black;" points="382,-1301 382,-748 "/>
<path style="fill:none;stroke:black;" d="M382,-748C382,-742 388,-736 394,-736"/>
<text text-anchor="middle" x="479" y="-1295.9" style="font-family:Times New Roman;font-size:14.00;">Profile</text>
<polyline style="fill:none;stroke:black;" points="382,-1288 577,-1288 "/>
<text text-anchor="start" x="389.5" y="-1271.4" style="font-family:Times New Roman;font-size:14.00;">first_name :string</text>
<text text-anchor="start" x="389.5" y="-1254.4" style="font-family:Times New Roman;font-size:14.00;">last_name :string</text>
<text text-anchor="start" x="389.5" y="-1237.4" style="font-family:Times New Roman;font-size:14.00;">nick_name :string</text>
<text text-anchor="start" x="389.5" y="-1220.4" style="font-family:Times New Roman;font-size:14.00;">short_status :string</text>
<text text-anchor="start" x="389.5" y="-1203.4" style="font-family:Times New Roman;font-size:14.00;">profile_photo_l :string</text>
<text text-anchor="start" x="389.5" y="-1186.4" style="font-family:Times New Roman;font-size:14.00;">profile_photo_m :string</text>
<text text-anchor="start" x="389.5" y="-1169.4" style="font-family:Times New Roman;font-size:14.00;">profile_photo_s :string</text>
<text text-anchor="start" x="389.5" y="-1152.4" style="font-family:Times New Roman;font-size:14.00;">home_location :string</text>
<text text-anchor="start" x="389.5" y="-1135.4" style="font-family:Times New Roman;font-size:14.00;">home_geo_lat :integer</text>
<text text-anchor="start" x="389.5" y="-1118.4" style="font-family:Times New Roman;font-size:14.00;">home_geo_long :integer</text>
<text text-anchor="start" x="389.5" y="-1101.4" style="font-family:Times New Roman;font-size:14.00;">current_location :string</text>
<text text-anchor="start" x="389.5" y="-1084.4" style="font-family:Times New Roman;font-size:14.00;">current_geo_lat :integer</text>
<text text-anchor="start" x="389.5" y="-1067.4" style="font-family:Times New Roman;font-size:14.00;">current_geo_long :integer</text>
<text text-anchor="start" x="389.5" y="-1050.4" style="font-family:Times New Roman;font-size:14.00;">age :integer</text>
<text text-anchor="start" x="389.5" y="-1033.4" style="font-family:Times New Roman;font-size:14.00;">sex :string</text>
<text text-anchor="start" x="389.5" y="-1016.4" style="font-family:Times New Roman;font-size:14.00;">theme :string</text>
<text text-anchor="start" x="389.5" y="-999.4" style="font-family:Times New Roman;font-size:14.00;">dob :date</text>
<text text-anchor="start" x="389.5" y="-982.4" style="font-family:Times New Roman;font-size:14.00;">address :string</text>
<text text-anchor="start" x="389.5" y="-965.4" style="font-family:Times New Roman;font-size:14.00;">company_name :string</text>
<text text-anchor="start" x="389.5" y="-948.4" style="font-family:Times New Roman;font-size:14.00;">phone_number :string</text>
<text text-anchor="start" x="389.5" y="-931.4" style="font-family:Times New Roman;font-size:14.00;">mobile_number :string</text>
<text text-anchor="start" x="389.5" y="-914.4" style="font-family:Times New Roman;font-size:14.00;">favorite_pal :string</text>
<text text-anchor="start" x="389.5" y="-897.4" style="font-family:Times New Roman;font-size:14.00;">work_area :string</text>
<text text-anchor="start" x="389.5" y="-880.4" style="font-family:Times New Roman;font-size:14.00;">interest :string</text>
<text text-anchor="start" x="389.5" y="-863.4" style="font-family:Times New Roman;font-size:14.00;">home_page :string</text>
<text text-anchor="start" x="389.5" y="-846.4" style="font-family:Times New Roman;font-size:14.00;">tag_string :string</text>
<text text-anchor="start" x="389.5" y="-829.4" style="font-family:Times New Roman;font-size:14.00;">email :string</text>
<text text-anchor="start" x="389.5" y="-812.4" style="font-family:Times New Roman;font-size:14.00;">searchable :string</text>
<text text-anchor="start" x="389.5" y="-795.4" style="font-family:Times New Roman;font-size:14.00;">verified_account :boolean</text>
<text text-anchor="start" x="389.5" y="-778.4" style="font-family:Times New Roman;font-size:14.00;">is_celebrity :boolean</text>
<text text-anchor="start" x="389.5" y="-761.4" style="font-family:Times New Roman;font-size:14.00;">created_at :datetime</text>
<text text-anchor="start" x="389.5" y="-744.4" style="font-family:Times New Roman;font-size:14.00;">updated_at :datetime</text>
</g>
<!-- User&#45;&gt;Profile -->
<g id="edge14" class="edge"><title>User&#45;&gt;Profile</title>
<path style="fill:none;stroke:black;" d="M595,-1342C591,-1329 586,-1315 580,-1300"/>
<ellipse style="fill:none;stroke:black;" cx="596.595" cy="-1346.25" rx="4.00001" ry="4.00001"/>
<ellipse style="fill:black;stroke:black;" cx="578.576" cy="-1296.68" rx="4.00002" ry="4.00002"/>
</g>
<!-- Contact -->
<g id="node12" class="node"><title>Contact</title>
<polyline style="fill:none;stroke:black;" points="1296,-420 1437,-420 "/>
<path style="fill:none;stroke:black;" d="M1437,-420C1443,-420 1449,-426 1449,-432"/>
<polyline style="fill:none;stroke:black;" points="1449,-432 1449,-509 "/>
<path style="fill:none;stroke:black;" d="M1449,-509C1449,-515 1443,-521 1437,-521"/>
<polyline style="fill:none;stroke:black;" points="1437,-521 1296,-521 "/>
<path style="fill:none;stroke:black;" d="M1296,-521C1290,-521 1284,-515 1284,-509"/>
<polyline style="fill:none;stroke:black;" points="1284,-509 1284,-432 "/>
<path style="fill:none;stroke:black;" d="M1284,-432C1284,-426 1290,-420 1296,-420"/>
<text text-anchor="middle" x="1366" y="-503.9" style="font-family:Times New Roman;font-size:14.00;">Contact</text>
<polyline style="fill:none;stroke:black;" points="1284,-496 1449,-496 "/>
<text text-anchor="start" x="1291.5" y="-479.4" style="font-family:Times New Roman;font-size:14.00;">status :string</text>
<text text-anchor="start" x="1291.5" y="-462.4" style="font-family:Times New Roman;font-size:14.00;">pending :boolean</text>
<text text-anchor="start" x="1291.5" y="-445.4" style="font-family:Times New Roman;font-size:14.00;">created_at :datetime</text>
<text text-anchor="start" x="1291.5" y="-428.4" style="font-family:Times New Roman;font-size:14.00;">updated_at :datetime</text>
</g>
<!-- User&#45;&gt;Contact -->
<g id="edge20" class="edge"><title>User&#45;&gt;Contact</title>
<path style="fill:none;stroke:black;" d="M717,-1409C887,-1392 1232,-1353 1270,-1314 1478,-1095 1414,-685 1380,-531"/>
<ellipse style="fill:none;stroke:black;" cx="712.969" cy="-1409.5" rx="4.00001" ry="4.00001"/>
<polygon style="fill:black;stroke:black;" points="1379.96,-530.806 1382.41,-520.117 1378.98,-525.903 1378,-521 1378,-521 1378,-521 1378.98,-525.903 1373.59,-521.883 1379.96,-530.806 1379.96,-530.806"/>
</g>
<!-- Like -->
<g id="node13" class="node"><title>Like</title>
<polyline style="fill:none;stroke:black;" points="572,-429 713,-429 "/>
<path style="fill:none;stroke:black;" d="M713,-429C719,-429 725,-435 725,-441"/>
<polyline style="fill:none;stroke:black;" points="725,-441 725,-501 "/>
<path style="fill:none;stroke:black;" d="M725,-501C725,-507 719,-513 713,-513"/>
<polyline style="fill:none;stroke:black;" points="713,-513 572,-513 "/>
<path style="fill:none;stroke:black;" d="M572,-513C566,-513 560,-507 560,-501"/>
<polyline style="fill:none;stroke:black;" points="560,-501 560,-441 "/>
<path style="fill:none;stroke:black;" d="M560,-441C560,-435 566,-429 572,-429"/>
<text text-anchor="middle" x="642" y="-495.9" style="font-family:Times New Roman;font-size:14.00;">Like</text>
<polyline style="fill:none;stroke:black;" points="560,-488 725,-488 "/>
<text text-anchor="start" x="567.5" y="-470.9" style="font-family:Times New Roman;font-size:14.00;">like_positive :string</text>
<text text-anchor="start" x="567.5" y="-453.9" style="font-family:Times New Roman;font-size:14.00;">created_at :datetime</text>
<text text-anchor="start" x="567.5" y="-436.9" style="font-family:Times New Roman;font-size:14.00;">updated_at :datetime</text>
</g>
<!-- User&#45;&gt;Like -->
<g id="edge16" class="edge"><title>User&#45;&gt;Like</title>
<path style="fill:none;stroke:black;" d="M624,-1342C628,-1156 638,-682 641,-523"/>
<ellipse style="fill:none;stroke:black;" cx="624" cy="-1346" rx="4" ry="4"/>
<polygon style="fill:black;stroke:black;" points="641,-523 645.5,-513 641,-518 641,-513 641,-513 641,-513 641,-518 636.5,-513 641,-523 641,-523"/>
</g>
<!-- LoopMembership -->
<g id="node14" class="node"><title>LoopMembership</title>
<polyline style="fill:none;stroke:black;" points="1186,-0 1327,-0 "/>
<path style="fill:none;stroke:black;" d="M1327,-0C1333,-0 1339,-6 1339,-12"/>
<polyline style="fill:none;stroke:black;" points="1339,-12 1339,-55 "/>
<path style="fill:none;stroke:black;" d="M1339,-55C1339,-61 1333,-67 1327,-67"/>
<polyline style="fill:none;stroke:black;" points="1327,-67 1186,-67 "/>
<path style="fill:none;stroke:black;" d="M1186,-67C1180,-67 1174,-61 1174,-55"/>
<polyline style="fill:none;stroke:black;" points="1174,-55 1174,-12 "/>
<path style="fill:none;stroke:black;" d="M1174,-12C1174,-6 1180,-0 1186,-0"/>
<text text-anchor="middle" x="1256" y="-49.9" style="font-family:Times New Roman;font-size:14.00;">LoopMembership</text>
<polyline style="fill:none;stroke:black;" points="1174,-42 1339,-42 "/>
<text text-anchor="start" x="1181.5" y="-25.4" style="font-family:Times New Roman;font-size:14.00;">created_at :datetime</text>
<text text-anchor="start" x="1181.5" y="-8.4" style="font-family:Times New Roman;font-size:14.00;">updated_at :datetime</text>
</g>
<!-- User&#45;&gt;LoopMembership -->
<g id="edge24" class="edge"><title>User&#45;&gt;LoopMembership</title>
<path style="fill:none;stroke:black;" d="M528,-1403C431,-1386 289,-1355 252,-1314 75,-1109 -75,-301 110,-104 147,-65 898,-43 1164,-36"/>
<polygon style="fill:black;stroke:black;" points="528.194,-1403.04 537.117,-1409.41 533.097,-1404.02 538,-1405 538,-1405 538,-1405 533.097,-1404.02 538.883,-1400.59 528.194,-1403.04 528.194,-1403.04"/>
<polygon style="fill:black;stroke:black;" points="1164,-36.0001 1174,-40.5 1169,-36 1174,-36 1174,-36 1174,-36 1169,-36 1174,-31.5 1164,-36.0001 1164,-36.0001"/>
</g>
<!-- Loop&#45;&gt;LoopMembership -->
<g id="edge32" class="edge"><title>Loop&#45;&gt;LoopMembership</title>
<path style="fill:none;stroke:black;" d="M1256,-96C1256,-90 1256,-83 1256,-77"/>
<ellipse style="fill:none;stroke:black;" cx="1256" cy="-100" rx="4" ry="4"/>
<polygon style="fill:black;stroke:black;" points="1256,-77 1260.5,-67 1256,-72 1256,-67 1256,-67 1256,-67 1256,-72 1251.5,-67 1256,-77 1256,-77"/>
</g>
<!-- PostVisibility -->
<g id="node7" class="node"><title>PostVisibility</title>
<polyline style="fill:none;stroke:black;" points="1038,-429 1179,-429 "/>
<path style="fill:none;stroke:black;" d="M1179,-429C1185,-429 1191,-435 1191,-441"/>
<polyline style="fill:none;stroke:black;" points="1191,-441 1191,-501 "/>
<path style="fill:none;stroke:black;" d="M1191,-501C1191,-507 1185,-513 1179,-513"/>
<polyline style="fill:none;stroke:black;" points="1179,-513 1038,-513 "/>
<path style="fill:none;stroke:black;" d="M1038,-513C1032,-513 1026,-507 1026,-501"/>
<polyline style="fill:none;stroke:black;" points="1026,-501 1026,-441 "/>
<path style="fill:none;stroke:black;" d="M1026,-441C1026,-435 1032,-429 1038,-429"/>
<text text-anchor="middle" x="1108" y="-495.9" style="font-family:Times New Roman;font-size:14.00;">PostVisibility</text>
<polyline style="fill:none;stroke:black;" points="1026,-488 1191,-488 "/>
<text text-anchor="start" x="1033.5" y="-470.9" style="font-family:Times New Roman;font-size:14.00;">hidden :boolean</text>
<text text-anchor="start" x="1033.5" y="-453.9" style="font-family:Times New Roman;font-size:14.00;">created_at :datetime</text>
<text text-anchor="start" x="1033.5" y="-436.9" style="font-family:Times New Roman;font-size:14.00;">updated_at :datetime</text>
</g>
<!-- Post&#45;&gt;LoopView -->
<g id="edge38" class="edge"><title>Post&#45;&gt;LoopView</title>
<path style="fill:none;stroke:black;" d="M970,-915C987,-711 1016,-291 974,-242 942,-205 636,-175 478,-162"/>
<ellipse style="fill:none;stroke:black;" cx="969.496" cy="-919.031" rx="4.00001" ry="4.00001"/>
<polygon style="fill:black;stroke:black;" points="477.95,-161.995 468.448,-156.522 472.975,-161.498 468,-161 468,-161 468,-161 472.975,-161.498 467.552,-165.478 477.95,-161.995 477.95,-161.995"/>
</g>
<!-- Post&#45;&gt;Comment -->
<g id="edge42" class="edge"><title>Post&#45;&gt;Comment</title>
<path style="fill:none;stroke:black;" d="M935,-915C912,-810 877,-654 856,-557"/>
<ellipse style="fill:none;stroke:black;" cx="936.03" cy="-919.119" rx="4.00001" ry="4.00001"/>
<polygon style="fill:black;stroke:black;" points="855.961,-556.806 858.413,-546.117 854.981,-551.903 854,-547 854,-547 854,-547 854.981,-551.903 849.587,-547.883 855.961,-556.806 855.961,-556.806"/>
</g>
<!-- Post&#45;&gt;Loop -->
<g id="edge40" class="edge"><title>Post&#45;&gt;Loop</title>
<path style="fill:none;stroke:black;" d="M1063,-916C1113,-857 1168,-779 1199,-700 1271,-508 1216,-444 1242,-242 1243,-233 1244,-224 1245,-215"/>
<polygon style="fill:black;stroke:black;" points="1062.59,-916.474 1052.61,-921.037 1059.29,-920.237 1056,-924 1056,-924 1056,-924 1059.29,-920.237 1059.39,-926.963 1062.59,-916.474 1062.59,-916.474"/>
<polygon style="fill:black;stroke:black;" points="1245.04,-214.806 1251.41,-205.883 1246.02,-209.903 1247,-205 1247,-205 1247,-205 1246.02,-209.903 1242.59,-204.117 1245.04,-214.806 1245.04,-214.806"/>
</g>
<!-- Post&#45;&gt;PostVisibility -->
<g id="edge46" class="edge"><title>Post&#45;&gt;PostVisibility</title>
<path style="fill:none;stroke:black;" d="M989,-915C1021,-796 1070,-612 1094,-523"/>
<ellipse style="fill:none;stroke:black;" cx="987.97" cy="-919.119" rx="4.00001" ry="4.00001"/>
<polygon style="fill:black;stroke:black;" points="1094.13,-522.578 1101.31,-514.293 1095.56,-517.789 1097,-513 1097,-513 1097,-513 1095.56,-517.789 1092.69,-511.707 1094.13,-522.578 1094.13,-522.578"/>
</g>
<!-- Post&#45;&gt;Hub -->
<g id="edge34" class="edge"><title>Post&#45;&gt;Hub</title>
<path style="fill:none;stroke:black;" d="M965,-915C974,-711 986,-288 941,-242 890,-190 364,-225 294,-206 283,-203 272,-198 261,-193"/>
<ellipse style="fill:none;stroke:black;" cx="965" cy="-919" rx="4" ry="4"/>
<polygon style="fill:black;stroke:black;" points="260.742,-192.856 254.185,-184.066 256.371,-190.428 252,-188 252,-188 252,-188 256.371,-190.428 249.815,-191.934 260.742,-192.856 260.742,-192.856"/>
</g>
<!-- Post&#45;&gt;Entity -->
<g id="edge36" class="edge"><title>Post&#45;&gt;Entity</title>
<path style="fill:none;stroke:black;" d="M858,-928C792,-869 703,-794 618,-736 591,-716 577,-722 551,-700 551,-700 551,-700 551,-700"/>
<polygon style="fill:black;stroke:black;" points="857.929,-927.929 861.818,-938.182 861.464,-931.464 865,-935 865,-935 865,-935 861.464,-931.464 868.182,-931.818 857.929,-927.929 857.929,-927.929"/>
<polygon style="fill:black;stroke:black;" points="550.526,-699.585 545.963,-689.613 546.763,-696.293 543,-693 543,-693 543,-693 546.763,-696.293 540.037,-696.387 550.526,-699.585 550.526,-699.585"/>
</g>
<!-- Post&#45;&gt;Contact -->
<g id="edge48" class="edge"><title>Post&#45;&gt;Contact</title>
<path style="fill:none;stroke:black;" d="M1060,-915C1114,-853 1179,-775 1232,-700 1271,-645 1309,-577 1335,-530"/>
<polygon style="fill:black;stroke:black;" points="1059.59,-915.474 1049.61,-920.037 1056.29,-919.237 1053,-923 1053,-923 1053,-923 1056.29,-919.237 1056.39,-925.963 1059.59,-915.474 1059.59,-915.474"/>
<polygon style="fill:black;stroke:black;" points="1335.14,-529.742 1343.93,-523.185 1337.57,-525.371 1340,-521 1340,-521 1340,-521 1337.57,-525.371 1336.07,-518.815 1335.14,-529.742 1335.14,-529.742"/>
</g>
<!-- Post&#45;&gt;Like -->
<g id="edge44" class="edge"><title>Post&#45;&gt;Like</title>
<path style="fill:none;stroke:black;" d="M874,-916C829,-855 774,-775 733,-700 701,-641 675,-570 658,-523"/>
<ellipse style="fill:none;stroke:black;" cx="876.675" cy="-919.745" rx="4.00002" ry="4.00002"/>
<polygon style="fill:black;stroke:black;" points="657.874,-522.578 659.31,-511.707 656.437,-517.789 655,-513 655,-513 655,-513 656.437,-517.789 650.69,-514.293 657.874,-522.578 657.874,-522.578"/>
</g>
<!-- Entity&#45;&gt;LoopView -->
<g id="edge52" class="edge"><title>Entity&#45;&gt;LoopView</title>
<path style="fill:none;stroke:black;" d="M385,-234C385,-221 385,-209 385,-198"/>
<ellipse style="fill:none;stroke:black;" cx="385" cy="-238" rx="4" ry="4"/>
<polygon style="fill:black;stroke:black;" points="385,-198 389.5,-188 385,-193 385,-188 385,-188 385,-188 385,-193 380.5,-188 385,-198 385,-198"/>
</g>
<!-- Entity&#45;&gt;Loop -->
<g id="edge54" class="edge"><title>Entity&#45;&gt;Loop</title>
<path style="fill:none;stroke:black;" d="M552,-242C670,-180 1001,-163 1164,-157"/>
<polygon style="fill:black;stroke:black;" points="551.742,-242.144 540.815,-243.066 547.371,-244.572 543,-247 543,-247 543,-247 547.371,-244.572 545.185,-250.934 551.742,-242.144 551.742,-242.144"/>
<polygon style="fill:black;stroke:black;" points="1164,-157 1174,-161.5 1169,-157 1174,-157 1174,-157 1174,-157 1169,-157 1174,-152.5 1164,-157 1164,-157"/>
</g>
<!-- Entity&#45;&gt;Hub -->
<g id="edge50" class="edge"><title>Entity&#45;&gt;Hub</title>
<path style="fill:none;stroke:black;" d="M248,-235C239,-222 232,-208 225,-197"/>
<ellipse style="fill:none;stroke:black;" cx="250.015" cy="-238.527" rx="4.00002" ry="4.00002"/>
<polygon style="fill:black;stroke:black;" points="224.856,-196.742 223.934,-185.815 222.428,-192.371 220,-188 220,-188 220,-188 222.428,-192.371 216.066,-190.185 224.856,-196.742 224.856,-196.742"/>
</g>
<!-- Contact&#45;&gt;Loop -->
<g id="edge58" class="edge"><title>Contact&#45;&gt;Loop</title>
<path style="fill:none;stroke:black;" d="M1345,-410C1325,-353 1296,-271 1276,-214"/>
<polygon style="fill:black;stroke:black;" points="1345.13,-410.422 1343.69,-421.293 1346.56,-415.211 1348,-420 1348,-420 1348,-420 1346.56,-415.211 1352.31,-418.707 1345.13,-410.422 1345.13,-410.422"/>
<polygon style="fill:black;stroke:black;" points="1276.16,-214.487 1277.27,-203.577 1274.58,-209.743 1273,-205 1273,-205 1273,-205 1274.58,-209.743 1268.73,-206.423 1276.16,-214.487 1276.16,-214.487"/>
</g>
<!-- Contact&#45;&gt;LoopMembership -->
<g id="edge56" class="edge"><title>Contact&#45;&gt;LoopMembership</title>
<path style="fill:none;stroke:black;" d="M1377,-412C1389,-336 1398,-201 1347,-104 1341,-92 1333,-82 1323,-74"/>
<ellipse style="fill:none;stroke:black;" cx="1376.5" cy="-416.031" rx="4.00001" ry="4.00001"/>
<polygon style="fill:black;stroke:black;" points="1322.53,-73.5851 1317.96,-63.6134 1318.76,-70.2925 1315,-67 1315,-67 1315,-67 1318.76,-70.2925 1312.04,-70.3866 1322.53,-73.5851 1322.53,-73.5851"/>
</g>
</g>
</svg>
